<?xml version="1.0" encoding="UTF-8"?><svg id="_Слой_2" xmlns="http://www.w3.org/2000/svg" viewBox="0 0 40 39.98"><defs><style>.cls-1{fill:#fff;}.cls-2{fill:#7495e8;}.cls-3{fill:none;stroke:#7495e8;stroke-miterlimit:10;}</style></defs><g id="OBJECTS"><g><ellipse class="cls-2" cx="20" cy="19.99" rx="15.28" ry="15.27"/><ellipse class="cls-3" cx="20" cy="19.99" rx="19.5" ry="19.49"/><g><circle class="cls-2" cx="37.17" cy="19.99" r=".95"/><circle class="cls-2" cx="2.83" cy="19.99" r=".95"/></g></g><path class="cls-1" d="M27.59,23.26c-.1-.15-.76-.47-.76-.47-.26-.13-2.19-1.07-2.55-1.2-.31-.11-.66-.24-.98,.23-.24,.35-.94,1.17-1.17,1.43-.16,.18-.31,.24-.66,.06-.06-.03-1.77-.76-2.96-1.81-1.05-.93-1.78-2.07-2.04-2.52-.16-.27-.06-.4,.14-.6,.12-.12,.67-.78,.71-.84,.09-.13,.24-.45,.24-.45,.16-.31,.06-.58-.03-.76-.06-.12-1.05-2.5-1.14-2.72-.28-.67-.58-.71-.87-.69-.14,.01-1.45,.02-1.86,.47l-.07,.08c-.41,.43-1.26,1.33-1.26,3.07,0,.4,.06,.82,.2,1.29,.24,.84,.72,1.76,1.35,2.6,.01,.02,.97,1.35,1.45,1.9,1.51,1.74,3.22,3.03,4.94,3.7,2.2,.86,3.14,1.06,3.68,1.06,.23,0,.72-.12,.83-.13,.67-.06,2.27-.89,2.61-1.83,.32-.88,.32-1.66,.21-1.86Z"/></g></svg>