<?xml version="1.0" encoding="UTF-8"?><svg id="_Слой_2" xmlns="http://www.w3.org/2000/svg" viewBox="0 0 40 39.98"><defs><style>.cls-1{fill:#fff;}.cls-2{fill:#7495e8;}.cls-3{fill:none;stroke:#7495e8;stroke-miterlimit:10;}</style></defs><g id="OBJECTS"><g><ellipse class="cls-2" cx="20" cy="19.99" rx="15.28" ry="15.27"/><ellipse class="cls-3" cx="20" cy="19.99" rx="19.5" ry="19.49"/><g><circle class="cls-2" cx="37.17" cy="19.99" r=".95"/><circle class="cls-2" cx="2.83" cy="19.99" r=".95"/></g></g><path class="cls-1" d="M27.6,14.14H12.4c-.72,0-1.31,.59-1.31,1.31v9.09c0,.72,.59,1.31,1.31,1.31h15.21c.72,0,1.31-.59,1.31-1.31V15.45c0-.72-.59-1.31-1.31-1.31Zm.25,1.52l-7.69,4.27s-.1,.04-.15,.04h-.04c-.05,0-.1-.01-.15-.04l-7.69-4.27c-.15-.08-.2-.27-.12-.41,.08-.15,.27-.2,.41-.12l7.57,4.2,7.56-4.2c.15-.08,.33-.03,.41,.12,.08,.15,.03,.33-.12,.41Z"/></g></svg>