<?xml version="1.0" encoding="UTF-8"?><svg id="_Слой_2" xmlns="http://www.w3.org/2000/svg" viewBox="0 0 40 39.98"><defs><style>.cls-1{fill:#fff;}.cls-2{fill:#7495e8;}.cls-3{fill:none;stroke:#7495e8;stroke-miterlimit:10;}</style></defs><g id="OBJECTS"><g><ellipse class="cls-2" cx="20" cy="19.99" rx="15.28" ry="15.27"/><ellipse class="cls-3" cx="20" cy="19.99" rx="19.5" ry="19.49"/><g><circle class="cls-2" cx="37.17" cy="19.99" r=".95"/><circle class="cls-2" cx="2.83" cy="19.99" r=".95"/></g></g><path class="cls-1" d="M20,10.88c-5.03,0-9.12,4.08-9.12,9.11s4.08,9.11,9.12,9.11,9.12-4.08,9.12-9.11-4.08-9.11-9.12-9.11Zm-4.61,8.4c0-.62,.5-1.11,1.11-1.11s1.11,.5,1.11,1.11-.5,1.11-1.11,1.11-1.11-.5-1.11-1.11Zm4.61,5.68c-1.47,0-2.68-1.09-2.87-2.5h5.74c-.19,1.41-1.4,2.5-2.87,2.5Zm3.49-4.57c-.62,0-1.11-.5-1.11-1.11s.5-1.11,1.11-1.11,1.11,.5,1.11,1.11-.5,1.11-1.11,1.11Z"/></g></svg>