<?xml version="1.0" encoding="UTF-8"?><svg id="_Слой_2" xmlns="http://www.w3.org/2000/svg" viewBox="0 0 40 39.98"><defs><style>.cls-1{fill:#fff;}.cls-2{fill:#7495e8;}.cls-3{fill:none;stroke:#7495e8;stroke-miterlimit:10;}</style></defs><g id="OBJECTS"><g><ellipse class="cls-2" cx="20" cy="19.99" rx="15.28" ry="15.27"/><ellipse class="cls-3" cx="20" cy="19.99" rx="19.5" ry="19.49"/><g><circle class="cls-2" cx="37.17" cy="19.99" r=".95"/><circle class="cls-2" cx="2.83" cy="19.99" r=".95"/></g></g><g><path class="cls-1" d="M20,24.61c2.55,0,4.62-2.07,4.62-4.61s-2.07-4.62-4.62-4.62-4.62,2.07-4.62,4.62,2.07,4.61,4.62,4.61Zm-3.5-4.61c0-1.93,1.57-3.5,3.5-3.5s3.5,1.57,3.5,3.5-1.57,3.5-3.5,3.5-3.5-1.57-3.5-3.5Z"/><path class="cls-1" d="M24.6,27.66H15.4c-1.73,0-3.13-1.41-3.13-3.13V15.46c0-1.73,1.41-3.13,3.13-3.13h9.21c1.73,0,3.13,1.41,3.13,3.13v9.07c0,1.73-1.41,3.13-3.13,3.13ZM15.4,13.47c-1.1,0-1.99,.89-1.99,1.99v9.07c0,1.1,.89,1.99,1.99,1.99h9.21c1.1,0,1.99-.89,1.99-1.99V15.46c0-1.1-.89-1.99-1.99-1.99H15.4Z"/></g></g></svg>