<?xml version="1.0" encoding="UTF-8"?><svg id="_Слой_2" xmlns="http://www.w3.org/2000/svg" viewBox="0 0 40 39.98"><defs><style>.cls-1{fill:#fff;}.cls-2{fill:#7495e8;}.cls-3{fill:none;stroke:#7495e8;stroke-miterlimit:10;}</style></defs><g id="OBJECTS"><g><ellipse class="cls-2" cx="20" cy="19.99" rx="15.28" ry="15.27"/><ellipse class="cls-3" cx="20" cy="19.99" rx="19.5" ry="19.49"/><g><circle class="cls-2" cx="37.17" cy="19.99" r=".95"/><circle class="cls-2" cx="2.83" cy="19.99" r=".95"/></g></g><g><path class="cls-1" d="M21.29,17.28v-3.7c0-.35-.29-.64-.64-.64-1.37,0-2.49,1.11-2.49,2.49v1.77h-4.74c-.74,0-1.34,.6-1.34,1.34,0,.51,.29,.95,.7,1.17-.42,.23-.7,.66-.7,1.17s.29,.95,.7,1.17c-.42,.23-.7,.66-.7,1.17,0,.57,.35,1.05,.85,1.24-.5,.2-.85,.68-.85,1.24,0,.74,.6,1.34,1.34,1.34h7.25c1.39,0,2.51-1.13,2.51-2.51v-4.83c0-1.17-.81-2.15-1.9-2.43Z"/><path class="cls-1" d="M25.1,18.2h1.89c.52,0,.93,.42,.93,.93v5.98c0,.52-.42,.93-.93,.93h-1.89c-.52,0-.93-.42-.93-.93v-5.98c0-.52,.42-.93,.93-.93Z"/></g></g></svg>