<?xml version="1.0" encoding="UTF-8"?><svg id="_Слой_2" xmlns="http://www.w3.org/2000/svg" viewBox="0 0 40 39.98"><defs><style>.cls-1{fill:#fff;}.cls-2{fill:#7495e8;}.cls-3{fill:none;stroke:#7495e8;stroke-miterlimit:10;}</style></defs><g id="OBJECTS"><g><ellipse class="cls-2" cx="20" cy="19.99" rx="15.28" ry="15.27"/><ellipse class="cls-3" cx="20" cy="19.99" rx="19.5" ry="19.49"/><g><circle class="cls-2" cx="37.17" cy="19.99" r=".95"/><circle class="cls-2" cx="2.83" cy="19.99" r=".95"/></g></g><path class="cls-1" d="M28.36,19.09c0,.98-.16,1.88-.47,2.7-.31,.82-.76,1.45-1.33,1.92-.57,.46-1.24,.7-2,.7-.51,0-.95-.12-1.34-.36-.39-.24-.67-.56-.84-.96h-.16c-.74,.88-1.68,1.32-2.81,1.32-1.21,0-2.16-.36-2.86-1.09-.7-.73-1.04-1.72-1.04-2.98,0-1.44,.46-2.6,1.37-3.48,.91-.88,2.11-1.32,3.58-1.32,.59,0,1.23,.06,1.94,.17,.71,.11,1.29,.25,1.74,.4l-.24,5c0,.95,.26,1.42,.78,1.42,.44,0,.78-.32,1.04-.96,.26-.64,.39-1.47,.39-2.5,0-1.1-.23-2.07-.69-2.91-.46-.84-1.1-1.49-1.93-1.93-.83-.44-1.78-.67-2.84-.67-1.38,0-2.58,.28-3.59,.85-1.02,.57-1.8,1.38-2.34,2.45-.54,1.07-.81,2.3-.81,3.7,0,1.88,.5,3.33,1.51,4.33,1.01,1.01,2.47,1.51,4.38,1.51,.72,0,1.52-.08,2.38-.24,.87-.16,1.72-.39,2.56-.7v1.96c-1.46,.62-3.08,.93-4.86,.93-2.59,0-4.61-.68-6.06-2.05-1.45-1.36-2.18-3.26-2.18-5.69,0-1.68,.37-3.21,1.11-4.59,.74-1.37,1.79-2.45,3.16-3.23,1.37-.78,2.94-1.17,4.72-1.17,1.5,0,2.84,.31,4.02,.92,1.18,.61,2.09,1.49,2.73,2.62,.64,1.13,.96,2.44,.96,3.92Zm-10.48,1.28c0,1.44,.59,2.16,1.76,2.16,.61,0,1.08-.22,1.4-.65,.32-.43,.52-1.14,.58-2.11l.13-2.26c-.35-.08-.74-.11-1.18-.11-.85,0-1.52,.27-1.99,.8-.47,.53-.71,1.26-.71,2.18Z"/></g></svg>