<?xml version="1.0" encoding="UTF-8"?><svg id="_Слой_2" xmlns="http://www.w3.org/2000/svg" viewBox="0 0 40 39.98"><defs><style>.cls-1{fill:#fff;}.cls-2{fill:#7495e8;}.cls-3{fill:none;stroke:#7495e8;stroke-miterlimit:10;}</style></defs><g id="OBJECTS"><g><ellipse class="cls-2" cx="20" cy="19.99" rx="15.28" ry="15.27"/><ellipse class="cls-3" cx="20" cy="19.99" rx="19.5" ry="19.49"/><g><circle class="cls-2" cx="37.17" cy="19.99" r=".95"/><circle class="cls-2" cx="2.83" cy="19.99" r=".95"/></g></g><path class="cls-1" d="M17.26,25.97l-4.26-4.33c-.16-.16-.16-.42,0-.57l2.24-2.2c.16-.16,.42-.16,.57,0l1.46,1.49c.16,.16,.42,.16,.58,0l6.34-6.34c.16-.16,.42-.16,.57,0l2.22,2.22c.16,.16,.16,.42,0,.57l-9.16,9.15c-.16,.16-.42,.16-.58,0Z"/></g></svg>