<?xml version="1.0" encoding="UTF-8"?><svg id="_Слой_2" xmlns="http://www.w3.org/2000/svg" viewBox="0 0 40 39.98"><defs><style>.cls-1{fill:#fff;}.cls-2{fill:#7495e8;}.cls-3{fill:none;stroke:#7495e8;stroke-miterlimit:10;}</style></defs><g id="OBJECTS"><g><ellipse class="cls-2" cx="20" cy="19.99" rx="15.28" ry="15.27"/><ellipse class="cls-3" cx="20" cy="19.99" rx="19.5" ry="19.49"/><g><circle class="cls-2" cx="37.17" cy="19.99" r=".95"/><circle class="cls-2" cx="2.83" cy="19.99" r=".95"/></g></g><g><path class="cls-1" d="M25.44,14.55h-.94l-1.35-1.9c-.11-.15-.28-.24-.46-.24h-5.38c-.18,0-.36,.09-.46,.24l-1.35,1.9h-.94c-1.46,0-2.66,1.19-2.66,2.65v7.72c0,1.46,1.19,2.65,2.66,2.65h10.89c1.46,0,2.66-1.19,2.66-2.65v-7.72c0-1.46-1.19-2.65-2.66-2.65Zm-5.44,10.36c-2.16,0-3.91-1.75-3.91-3.91s1.75-3.91,3.91-3.91,3.91,1.75,3.91,3.91-1.75,3.91-3.91,3.91Z"/><path class="cls-1" d="M20,18.41c-1.43,0-2.59,1.16-2.59,2.59s1.16,2.59,2.59,2.59,2.59-1.16,2.59-2.59-1.16-2.59-2.59-2.59Z"/></g></g></svg>