<?xml version="1.0" encoding="UTF-8"?><svg id="_Слой_2" xmlns="http://www.w3.org/2000/svg" viewBox="0 0 40 39.98"><defs><style>.cls-1{fill:#fff;}.cls-2{fill:#7495e8;}.cls-3{fill:none;stroke:#7495e8;stroke-miterlimit:10;}</style></defs><g id="OBJECTS"><g><ellipse class="cls-2" cx="20" cy="19.99" rx="15.28" ry="15.27"/><ellipse class="cls-3" cx="20" cy="19.99" rx="19.5" ry="19.49"/><g><circle class="cls-2" cx="37.17" cy="19.99" r=".95"/><circle class="cls-2" cx="2.83" cy="19.99" r=".95"/></g></g><g><path class="cls-1" d="M29.09,19.52c-.12-4.84-4.04-8.62-8.91-8.62s-8.7,3.71-8.91,8.46c0,.13-.01,.26-.01,.39,0,1.57,.42,3.11,1.22,4.46,.02,.03,.02,.07,.01,.11l-1.58,4.66c-.02,.06,.04,.12,.1,.1l4.86-1.54s.07,0,.1,0c1.29,.69,2.74,1.05,4.21,1.05,4.92,0,8.92-3.97,8.92-8.85,0-.06,0-.22,0-.22Zm-14.93,4.21c-.8-1.18-1.22-2.55-1.22-3.99,0-.23,.01-.46,.03-.7,.36-3.7,3.46-6.49,7.21-6.49s6.93,2.91,7.22,6.62c.02,.22,.02,.4,.02,.56,0,3.96-3.25,7.18-7.24,7.18-1.07,0-2.11-.23-3.06-.67-.27-.12-.77-.43-.93-.52-.03-.02-.07-.02-.11-.01l-2.45,.78c-.06,.02-.11-.04-.09-.09l.79-2.33s0-.08-.02-.12c-.05-.07-.13-.18-.16-.23Z"/><path class="cls-1" d="M24.42,21.71c-.06-.09-.44-.27-.44-.27-.15-.08-1.27-.62-1.48-.7-.18-.06-.38-.14-.57,.13-.14,.21-.54,.68-.68,.83-.09,.11-.18,.14-.38,.04-.03-.02-1.03-.44-1.72-1.05-.61-.54-1.03-1.2-1.18-1.46-.09-.16-.03-.23,.08-.35,.07-.07,.39-.45,.41-.49,.05-.08,.14-.26,.14-.26,.09-.18,.03-.34-.02-.44-.04-.07-.61-1.45-.66-1.58-.16-.39-.34-.41-.5-.4-.08,0-.84,.01-1.08,.27l-.04,.04c-.24,.25-.73,.77-.73,1.78,0,.23,.04,.48,.11,.75,.14,.49,.42,1.02,.78,1.51,0,.01,.56,.78,.84,1.1,.88,1.01,1.87,1.75,2.87,2.15,1.28,.5,1.82,.61,2.13,.61,.14,0,.42-.07,.48-.07,.39-.03,1.32-.52,1.51-1.06,.18-.51,.19-.96,.12-1.08Z"/></g></g></svg>